<svg width="7734" height="3516" viewBox="0 0 7734 3516" fill="none" xmlns="http://www.w3.org/2000/svg">
<path d="M5987.63 2151.88C5912.46 2123.95 5875.88 2035.48 5911.13 1966.3C5934.41 1921.07 5991.62 1895.13 6082.08 1889.81C6183.18 1883.16 6183.85 1882.49 6183.85 1855.88C6183.85 1804.67 6155.25 1780.06 6096.71 1780.06C6057.47 1780.06 6028.2 1793.36 6015.56 1817.97C6006.25 1834.6 6003.59 1835.26 5960.35 1833.93C5935.08 1833.27 5913.79 1831.94 5913.13 1831.27C5913.13 1830.61 5916.45 1818.64 5921.11 1804C5933.08 1770.74 5967.01 1735.49 6003.59 1718.86C6042.17 1700.9 6131.97 1694.91 6175.2 1706.89C6215.78 1718.86 6266.33 1766.09 6276.31 1803.34C6280.3 1819.3 6283.62 1895.13 6283.62 1991.58V2152.55H6237.06H6190.5V2125.94C6190.5 2106.65 6187.84 2099.33 6180.52 2099.33C6174.54 2099.33 6168.55 2103.99 6166.55 2109.31C6163.89 2115.3 6148.6 2127.27 6132.63 2137.25C6109.35 2150.55 6092.06 2155.21 6054.81 2156.54C6028.87 2157.87 5998.93 2155.87 5987.63 2151.88ZM6131.3 2064.08C6165.22 2046.12 6183.85 2015.52 6183.85 1977.61V1951.67L6119.33 1956.32C6083.41 1958.98 6047.49 1963.64 6039.51 1966.97C6013.57 1976.28 5997.6 1998.23 5997.6 2022.18C5997.6 2074.72 6068.78 2096.67 6131.3 2064.08Z" fill="#F0A500"/>
<path d="M6806.44 2149.22C6772.52 2137.25 6743.92 2109.31 6735.94 2080.04C6732.61 2066.74 6729.29 1995.57 6729.29 1921.74V1786.71H6696.69C6678.07 1786.71 6661.44 1783.38 6659.44 1780.06C6656.78 1776.06 6656.78 1758.1 6659.44 1740.15L6664.1 1706.89H6696.69H6729.29V1653.67V1600.46H6779.17H6829.06V1653.67V1706.89H6872.3H6915.53V1746.8V1786.71H6892.25C6878.95 1786.71 6859.66 1791.36 6849.02 1796.68L6829.06 1807.33V1922.4C6829.06 2028.83 6830.39 2038.8 6843.03 2055.43C6854.34 2070.07 6861.65 2072.73 6889.59 2072.73H6922.18V2111.97C6922.18 2150.55 6921.52 2151.22 6901.56 2155.21C6868.97 2161.19 6835.05 2159.2 6806.44 2149.22Z" fill="#F0A500"/>
<path d="M7131.71 2150.55C7065.19 2128.6 7019.3 2084.04 6994.69 2020.18C6975.4 1968.3 6978.72 1864.53 7001.34 1821.3C7038.59 1748.79 7099.12 1708.88 7181.6 1702.23C7248.78 1696.91 7294.01 1712.87 7342.57 1760.1C7383.81 1800.01 7396.44 1831.27 7403.76 1910.43C7407.09 1949.01 7406.42 1951.67 7392.45 1955.66C7384.47 1957.65 7311.3 1959.65 7230.15 1959.65C7063.2 1959.65 7070.51 1956.99 7094.46 2009.54C7109.09 2041.46 7123.73 2055.43 7156.99 2069.4C7204.88 2089.36 7268.07 2075.39 7297.34 2038.14C7312.63 2018.18 7313.96 2018.18 7357.2 2022.18L7401.1 2027.5L7390.46 2051.44C7376.49 2086.03 7338.58 2122.61 7298.67 2139.91C7256.76 2157.87 7171.62 2163.19 7131.71 2150.55ZM7299.33 1863.2C7280.71 1750.12 7113.08 1754.11 7085.15 1868.52L7080.49 1886.48H7191.57H7303.32L7299.33 1863.2Z" fill="#F0A500"/>
<path d="M5051.08 2147.89C5048.41 2145.9 5046.42 2010.87 5046.42 1848.57V1553.9H5096.31H5146.19L5146.86 1662.32C5147.52 1721.52 5149.52 1785.38 5151.52 1804L5156.17 1837.26L5277.9 1695.58L5399.62 1553.9H5460.15H5521.35L5504.72 1572.52C5495.41 1582.5 5443.52 1641.04 5388.98 1702.9C5298.52 1806 5291.2 1815.97 5299.18 1828.61C5303.84 1836.59 5357.05 1907.77 5416.92 1987.59C5476.78 2068.07 5528 2137.91 5529.99 2143.23C5533.32 2151.88 5524.67 2152.55 5471.46 2151.22L5409.6 2149.22L5319.14 2026.17C5264.59 1951.67 5224.68 1903.11 5218.03 1903.11C5212.05 1903.11 5193.42 1920.4 5176.79 1942.36L5146.19 1980.93V2066.74V2152.55H5100.96C5075.69 2152.55 5053.07 2150.55 5051.08 2147.89Z" fill="#F0A500"/>
<path d="M5606.49 1931.71L5608.48 1710.21L5653.72 1708.22L5698.28 1706.22L5699.61 1731.5C5699.61 1745.47 5700.28 1760.76 5700.28 1765.42C5699.61 1779.39 5707.59 1774.07 5723.56 1749.46C5742.18 1720.85 5783.42 1700.9 5823.33 1700.23H5851.27V1745.47V1790.03L5812.02 1790.7C5763.47 1791.36 5735.53 1807.33 5718.24 1843.25C5706.26 1867.86 5704.93 1885.15 5704.93 2011.53V2152.55H5655.05H5605.16L5606.49 1931.71Z" fill="#F0A500"/>
<path d="M6421.32 2147.89C6418.65 2145.89 6416.66 2063.41 6416.66 1964.97V1786.71H6383.4H6350.14V1754.11C6350.14 1717.53 6356.79 1708.88 6390.05 1705.56L6413.33 1703.56L6417.32 1657C6424.64 1565.21 6466.55 1527.29 6561 1527.29C6620.86 1527.29 6625.52 1530.62 6619.53 1572.52L6614.88 1605.78L6578.96 1608.44C6532.4 1612.43 6523.09 1621.74 6521.09 1666.98L6519.76 1703.56L6564.99 1705.56L6609.56 1707.55V1746.8V1786.04L6564.99 1788.04L6519.76 1790.03L6517.76 1971.62L6516.43 2152.55H6471.2C6445.93 2152.55 6423.31 2150.55 6421.32 2147.89Z" fill="#F0A500"/>
<path d="M7492.23 2148.56C7489.57 2145.89 7487.57 2045.46 7487.57 1925.06V1706.89H7537.46H7587.35V1740.81V1774.73L7615.95 1743.47C7643.89 1712.87 7671.16 1700.9 7715.72 1700.23C7733.68 1700.23 7733.68 1700.23 7733.68 1746.8V1793.36H7693.77C7647.88 1793.36 7621.27 1804.67 7603.31 1831.27C7592 1847.9 7590.01 1867.19 7587.35 1999.56L7584.02 2149.22L7540.78 2151.22C7516.84 2152.55 7494.89 2151.22 7492.23 2148.56Z" fill="#F0A500"/>
<path d="M3227.19 2150.55C3183.96 2135.92 3161.34 2121.95 3135.4 2093.35C3102.81 2057.43 3086.18 2022.84 3076.86 1971.62C3057.57 1868.52 3106.8 1766.09 3195.93 1722.19C3228.52 1706.22 3241.83 1703.56 3290.38 1703.56C3337.61 1703.56 3352.91 1706.22 3384.17 1720.86C3452.02 1752.78 3492.59 1809.32 3503.23 1887.81C3519.2 2000.22 3473.97 2097.34 3386.83 2138.58C3346.26 2157.87 3267.77 2163.85 3227.19 2150.55ZM3350.91 2062.75C3360.89 2057.43 3378.18 2038.8 3388.16 2020.84C3404.79 1993.57 3406.79 1982.93 3406.79 1933.04C3406.79 1885.15 3404.13 1871.18 3390.16 1843.25C3346.26 1758.1 3229.85 1761.43 3189.94 1849.23C3175.97 1880.49 3173.31 1954.33 3184.62 1994.9C3203.91 2064.08 3284.4 2096.67 3350.91 2062.75Z" fill="#3BB8CF"/>
<path d="M4179.71 2149.89C4114.52 2131.93 4057.32 2075.39 4038.03 2008.21C4023.39 1958.32 4027.38 1868.52 4046.67 1825.95C4076.61 1759.44 4129.82 1718.86 4204.98 1706.22C4342.67 1683.61 4447.77 1773.41 4447.77 1914.42V1953H4296.78C4212.96 1953 4141.13 1955.66 4135.81 1958.99C4120.51 1968.3 4133.14 2010.2 4159.75 2039.47C4206.98 2092.68 4296.11 2092.02 4341.34 2039.47C4357.31 2020.85 4359.3 2020.18 4399.88 2024.17C4424.49 2026.17 4441.12 2030.82 4441.12 2035.48C4441.12 2052.11 4402.54 2103.33 4376.59 2121.29C4324.05 2157.87 4248.88 2168.51 4179.71 2149.89ZM4347.99 1868.52C4347.99 1843.25 4326.04 1809.32 4300.1 1793.36C4268.84 1774.07 4210.97 1775.4 4181.04 1795.36C4153.76 1813.98 4128.49 1849.9 4128.49 1870.52V1886.48H4238.24H4347.99V1868.52Z" fill="#3BB8CF"/>
<path d="M3601.02 2147.89C3598.36 2145.9 3596.36 2010.87 3596.36 1848.57V1553.9H3646.25H3696.14V1728.84V1903.11L3751.34 1846.57C3781.28 1815.31 3823.18 1771.41 3845.13 1748.13L3883.71 1706.22L3936.26 1708.22L3988.81 1710.21L3902.34 1803.34C3855.11 1854.55 3815.87 1899.12 3815.87 1901.78C3815.87 1904.44 3857.77 1960.98 3908.99 2026.17C3960.21 2092.02 4002.11 2147.23 4002.11 2149.22C4002.11 2151.22 3978.17 2152.55 3949.56 2152.55C3910.98 2152.55 3893.69 2149.89 3886.37 2142.57C3881.05 2137.25 3847.79 2095.34 3813.2 2049.45C3777.95 2004.22 3746.69 1964.97 3742.7 1962.98C3739.37 1960.98 3727.4 1963.64 3716.09 1969.63L3696.14 1980.27V2066.08V2152.55H3650.9C3625.63 2152.55 3603.01 2150.55 3601.02 2147.89Z" fill="#3BB8CF"/>
<path d="M4538.9 2147.89C4536.24 2145.9 4534.24 2045.46 4534.24 1925.06V1706.89H4580.8H4627.36V1736.82C4627.36 1753.45 4630.03 1766.75 4632.69 1766.75C4636.01 1766.75 4646.65 1758.11 4656.63 1747.46C4721.82 1679.62 4852.19 1688.93 4900.75 1764.76C4928.68 1809.32 4933.34 1845.91 4933.34 2006.88V2153.88L4885.45 2150.55L4836.89 2147.89L4833.57 1992.24C4830.9 1858.55 4828.91 1833.93 4818.27 1819.3C4801.64 1794.69 4776.36 1783.38 4740.44 1784.05C4702.53 1784.71 4669.94 1802.01 4649.32 1833.27C4634.68 1854.55 4634.02 1860.54 4634.02 2003.55V2152.55H4588.79C4563.51 2152.55 4540.89 2150.55 4538.9 2147.89Z" fill="#3BB8CF"/>
<path d="M956.493 2573.57C862.693 2474.25 789.41 2354.41 745.523 2229.15C731.926 2190.08 710.282 2103.5 703.566 2060.26C695.954 2012.26 691.458 1901.21 694.924 1851.12C710.627 1630.65 801.479 1428.7 956.053 1270.2C1076.18 1146.98 1213.42 1065.16 1378.02 1018.84C1478.87 990.175 1595.5 977.679 1698.4 984.49C1820.95 992.248 1969.63 1033.95 2073.79 1089.49C2100.63 1103.57 2102.08 1105.33 2140.03 1158.81C2179.9 1214.49 2179.62 1213.36 2151.53 1202.07C2138.74 1196.49 2119.92 1188.43 2109.68 1183.88C2099.45 1179.32 2085.59 1175.37 2078.51 1175.01L2065.73 1174.66L2110.53 1213.02C2134.95 1234.05 2154.65 1251.63 2154.22 1252.11C2152.92 1253.54 2087.45 1242.55 2062.33 1236.6C2050.58 1233.7 2023.42 1222.83 2001.74 1212.17C1960.01 1191.46 1940.47 1182.76 1923.8 1177.12C1918.26 1175.54 1910.6 1172.46 1906.64 1170.59C1894.52 1164.74 1819.04 1143.72 1788.89 1137.54C1574.98 1095.09 1342.88 1146.03 1164.86 1274.8C1075.18 1339.44 989.833 1434.67 936.376 1529.39C823.321 1729.35 805.242 1983.45 888.628 2202.02C953.399 2371.26 1071.23 2513.51 1223.76 2605.88C1440.97 2737.32 1705.48 2758.81 1941.11 2664.41C2177.63 2569.5 2354.25 2363.51 2414.81 2111.16C2445.01 1985.57 2442.8 1839.07 2408.87 1717.24C2395.29 1668.15 2392.18 1664.87 2385.92 1693.19L2382.27 1708.63L2379.98 1698.24C2371.03 1656.01 2379.33 1550.54 2391.61 1549.99C2395.71 1549.8 2410.77 1570.56 2451.79 1631.66C2518.94 1731.49 2515.28 1725.95 2517.67 1723.33C2520.28 1720.48 2509.19 1676.29 2490.74 1615.33C2480.27 1580 2478.52 1571.42 2483.05 1570.76C2486.67 1570.14 2493.7 1574.39 2501.78 1581.78C2513.19 1592.21 2516.42 1598.23 2526.7 1629.46C2570.16 1760.44 2583.78 1871.54 2572.77 2002.9C2550.19 2268.59 2423.44 2504.05 2216.12 2665.82C2142.32 2723.6 2065.8 2766.23 1974.13 2801.55C1875.95 2839.21 1788.51 2857.02 1681.81 2862C1466.11 2871.62 1263.53 2812.49 1090.69 2689.33C1049.72 2660.15 987.377 2606.62 956.493 2573.57Z" fill="#F0A500"/>
<path d="M1110.27 2412.6C855.073 2134.66 851.517 1712.37 1101.95 1438.56C1248.25 1278.6 1464.77 1190.29 1677.15 1203.39C1812.05 1211.97 1959.12 1263.54 2055.4 1336.77L2073.8 1350.54L2046.11 1358.38C2015.49 1367.04 2021.03 1368.62 1968.28 1336.09C1940.86 1319.3 1889.62 1295.14 1884.44 1296.51C1882.42 1297.29 1878.7 1295.63 1875.85 1293.02C1873.23 1290.63 1862.09 1286.11 1851.46 1282.94C1840.62 1280 1823.06 1274.86 1811.95 1271.25C1746.04 1250.25 1620.11 1243.32 1536.77 1255.7C1417.65 1273.78 1303.62 1324.01 1208.08 1400.31C1169.77 1430.75 1098.27 1509.4 1073.54 1547.89C968.196 1711.27 936.49 1900.08 983.531 2085.85C1016.46 2215.92 1082.97 2326.95 1182.79 2418.25C1263.37 2491.95 1345.47 2538.67 1446.66 2568.36C1520.11 2589.7 1585.25 2598.65 1657.21 2596.81C2004.75 2588.61 2287.83 2315.86 2309.9 1967.2C2314.04 1901.58 2306.66 1812.77 2292.82 1763C2287.67 1744.76 2287.88 1739.28 2294.63 1716.64C2300.82 1696.98 2303.96 1690.69 2308.27 1690.27C2317.33 1688.95 2318.84 1692.07 2329.84 1729.2C2380.27 1904.1 2359.46 2102 2273.55 2261.32C2238.38 2326.5 2220.56 2351.23 2165.56 2411.36C2109.02 2472.71 2076.28 2500.38 2015.03 2537.77C1904.95 2605.15 1802.79 2635.24 1665.12 2641.15C1606.87 2643.74 1585.4 2642.88 1543.15 2636.1C1514.91 2631.66 1487.36 2627.41 1482.08 2626.51C1476.58 2625.84 1469.41 2623.65 1465.45 2621.78C1461.73 2620.12 1453.46 2618.67 1447.05 2618.04C1440.66 2617.87 1429.35 2614.95 1421.46 2611.66C1413.77 2608.12 1392.2 2599.74 1373.41 2592.6C1273.94 2555.31 1185.75 2494.73 1110.27 2412.6Z" fill="#F0A500"/>
<path d="M1369.51 2223.62C1369.19 2184 1369.19 2102.51 1369.51 2042.27C1369.51 1982.04 1369.83 1852.56 1369.83 1754.64V1576.84L1446.49 1577.48L1522.83 1578.45V1722.43C1522.83 1801.99 1523.79 1866.73 1524.76 1866.73C1528.3 1866.73 1678.08 1696.98 1761.18 1599.06L1776.96 1580.06H1873.92C1927.06 1580.06 1968.94 1581.35 1967 1582.64C1965.39 1583.93 1896.14 1662.2 1896.14 1662.2C1896.14 1662.2 1670.99 1922.45 1671.32 1926.32C1671.64 1930.18 1724.78 1995.25 1909.99 2220.07C1942.52 2259.37 1968.94 2292.54 1968.94 2293.51C1968.94 2294.48 1926.42 2295.12 1874.88 2295.12L1780.51 2294.8L1731.55 2234.57C1621.07 2098.64 1535.39 1997.18 1529.91 1996.21C1524.76 1995.25 1524.44 1999.76 1524.12 2052.58C1524.12 2084.15 1523.79 2151.14 1523.47 2201.71L1522.83 2293.51L1446.49 2294.48L1369.83 2295.12L1369.51 2223.62Z" fill="#F0A500"/>
<path d="M2206.56 1628.23C2211.57 1612.73 2217.92 1596.71 2220.01 1592.52C2222.76 1587.61 2222.32 1582.84 2218.91 1577.98C2206.24 1559.85 2205.87 1561.69 2223.64 1546.07C2232.42 1538.39 2240.56 1531.87 2241.47 1531.83C2246.02 1531.63 2270.61 1576.81 2270.78 1585.69C2271.07 1597.31 2262.45 1659.7 2260.55 1657.97C2259.83 1657.31 2257.55 1652.17 2255.71 1646.55C2253.41 1640.96 2247.34 1632.79 2241.2 1628.05L2230.57 1619.63L2214.56 1639.04C2205.91 1649.46 2198.3 1657.78 2197.82 1657.34C2197.35 1656.91 2201.09 1643.75 2206.56 1628.23Z" fill="#F0A500"/>
<path d="M2087.37 1511.8C2107.57 1489.24 2117.57 1483.55 2125.18 1490.51C2128.27 1493.34 2130.71 1496.88 2131.01 1498.46C2131.11 1500.73 2106.41 1514.37 2081.83 1525.5L2070.87 1530.32L2087.37 1511.8Z" fill="#F0A500"/>
<path d="M1980.35 1402.12C1990.87 1397.78 2051.41 1380.26 2102.11 1366.83C2129.83 1359.44 2167.6 1357.75 2171.74 1363.72C2177.56 1371.67 2061.07 1397.39 1986.17 1404.83L1968.91 1406.51L1980.35 1402.12Z" fill="#F0A500"/>
<path d="M2289.31 1617.93C2294.75 1581.44 2303.29 1522.47 2308.79 1487.34C2314.06 1451.99 2317.27 1421.76 2315.84 1420.45C2313.47 1418.28 2302.54 1428.8 2268.62 1465.88C2244.28 1492.5 2212.91 1525.36 2199.14 1538.51L2174.23 1562.87L2220.11 1487.42C2245.15 1445.72 2267.06 1410.32 2268.36 1408.89C2269.88 1407.23 2269.05 1403.84 2266.43 1401.45C2262.87 1398.19 2245.68 1401.24 2200.82 1412.59C2167.45 1420.91 2139.26 1427.87 2138.58 1428.13C2137.67 1428.17 2136.96 1427.52 2136.92 1426.61C2136.8 1423.88 2163.41 1407.19 2217.44 1376.28C2244.78 1360.7 2268.12 1347.12 2268.99 1346.17C2274.64 1339.99 2248.19 1329.77 2187.09 1314.48C2179.02 1312.33 2170.9 1309.28 2168.76 1307.32C2163.79 1303.21 2080.3 1276.61 2073.48 1276.91C2070.75 1277.04 2066.81 1275.62 2064.67 1273.66C2062.77 1271.92 2054.18 1268.43 2045.84 1265.61L2031.04 1260.8L2041.94 1259.85C2047.62 1259.37 2074.91 1262.94 2102.02 1267.66C2128.91 1272.62 2170.26 1279.44 2193.21 1282.97L2235.46 1289.75L2214.13 1271.55C2193.52 1254.01 2193.26 1253.33 2200.97 1252.53C2205.29 1252.11 2215.64 1254.16 2223.97 1256.98C2237.85 1261.38 2238.76 1261.34 2235.74 1255.09C2233.52 1251.31 2217.19 1227.64 2198.96 1202.24C2156.43 1143.26 2157.66 1145.26 2165.18 1145.15C2169.73 1144.95 2182.92 1154.39 2209.7 1177.14C2251.38 1212.21 2261.74 1219.5 2261.24 1213.37C2260.92 1211.33 2252.49 1190.96 2241.9 1168.18C2209.55 1097.12 2178.83 1016.64 2184.63 1018.89C2189.5 1020.73 2226.88 1081.99 2283.74 1181.13C2295.1 1200.69 2304.91 1216.21 2305.56 1215.5C2306.43 1214.55 2306.16 1198.14 2305.52 1178.79C2304.18 1148.76 2304.89 1144.17 2310 1146.22C2314.17 1147.86 2318.38 1155.19 2323.1 1169.12C2326.79 1180.35 2330.86 1189.75 2331.99 1189.47C2333.14 1189.64 2342.56 1160.73 2352.85 1125.61C2363.6 1090.48 2372.98 1060.65 2374.29 1059.23C2375.37 1058.04 2377.89 1058.15 2379.55 1059.67C2382.42 1062.74 2373.2 1147.28 2366.76 1176.75C2361.46 1201.15 2353.51 1401.22 2356.79 1428.66C2360.66 1459.26 2378.73 1481.03 2407.35 1488.87C2416.81 1491.41 2425.62 1494.67 2426.81 1495.75C2429.42 1498.15 2462.98 1601.3 2463.28 1608.12C2463.38 1610.4 2456.57 1600.67 2447.75 1586.93C2404.51 1517.27 2384.66 1491.25 2376.55 1493.44C2374.29 1493.99 2369.67 1512.89 2365.87 1535.18C2357.95 1582.5 2357.38 1585.03 2355.72 1583.51C2355.24 1583.07 2352.79 1563.8 2350.17 1540.89C2345.55 1498.69 2342.67 1485.14 2339.19 1488.95C2337.67 1490.61 2320.63 1548.37 2289.85 1655.52C2285.36 1672.37 2281.16 1685.55 2280.68 1685.12C2280.2 1684.68 2284.09 1654.19 2289.31 1617.93Z" fill="#F0A500"/>
<path d="M2147.47 1479.03C2137.38 1467.62 2129.18 1457.5 2129.14 1456.59C2128.8 1454.1 2173.21 1442.77 2176.04 1444.92C2180.52 1448.14 2182.68 1450.56 2193.51 1463.52C2202.9 1474.73 2202.95 1475.64 2196.42 1482.77C2192.51 1487.05 2186.72 1495.29 2183.35 1501.37C2176.38 1513.76 2178.95 1515.24 2147.47 1479.03Z" fill="#F0A500"/>
<path d="M2491.09 1541.45C2466.07 1517.26 2445.53 1496.29 2445.47 1494.92C2445.17 1493.34 2453.8 1492.5 2464.31 1492.94L2483.28 1494.15L2522.25 1549.87C2543.69 1580.83 2561.49 1606.71 2561.31 1607.86C2561.37 1609.22 2555.92 1604.68 2549.01 1597.92C2542.1 1591.16 2516.11 1565.64 2491.09 1541.45Z" fill="#F0A500"/>
<path d="M2527.25 1493.32C2527.9 1492.61 2531.48 1491.08 2535.06 1489.56C2540.67 1487.71 2544.18 1489.61 2558.7 1503.32L2575.59 1519.21L2552.55 1508.61C2528.1 1497.16 2525.29 1495.46 2527.25 1493.32Z" fill="#F0A500"/>
<path d="M2109.09 1058.05C2095.08 1040.44 2094.33 1038.88 2101.61 1038.55C2105.7 1038.37 2115.5 1043.41 2124.47 1050.3L2140.28 1062.14L2133.32 1069.74C2126.15 1077.58 2123.36 1076.34 2109.09 1058.05Z" fill="#F0A500"/>
<path d="M2249.18 1055.23C2237.66 1022 2242.61 1005.14 2256.49 1030.05C2263.41 1042.06 2264.93 1055.67 2260.59 1065.66C2257.92 1072.39 2254.12 1068.92 2249.18 1055.23Z" fill="#F0A500"/>
<path d="M2456.54 1129.65C2468.73 1111.55 2531.02 1041.07 2533.16 1043.02C2535.77 1045.41 2535.57 1046.11 2504.15 1098.12L2479.94 1137.96L2465.14 1138.39L2450.34 1138.82L2456.54 1129.65Z" fill="#F0A500"/>
<path d="M2438.99 1027.61C2439.64 1021.65 2444.79 1009.34 2450.54 1000.19C2463.3 979.562 2463.51 979.325 2467.56 983.02C2471.36 986.498 2461.92 1025.45 2455.62 1032.34C2449.75 1038.76 2441.94 1042.53 2439.56 1040.35C2438.37 1039.27 2437.89 1033.59 2438.99 1027.61Z" fill="#F0A500"/>
<path d="M2778.34 2253.65C2775.41 2252.84 2772.63 2251.84 2771.88 2251.41C2771.36 2251.01 2772.95 2237.83 2775.33 2222.22C2777.91 2206.56 2780.86 2103.94 2782.12 2060.26C2786.04 1920.24 2788.35 1864.81 2791 1859.67C2792.51 1856.67 2797.71 1848.26 2802.97 1841.09C2815.19 1823.55 2815.35 1822.5 2817.22 1770.65C2818.67 1734.68 2828.06 1523.79 2828.48 1499.98C2828.7 1492.24 2826.01 1492.59 2915.84 1494.56L2964.3 1495.36L2964.6 1513.08C2964.69 1522.67 2963.05 1519.26 2960.62 1604.32C2954.09 1845.9 2953.35 1831.74 2972.45 1853.7C2984.21 1867.06 2983.79 1863.12 2980.49 1971.18C2979.19 2017.99 2975.97 2190.74 2973.63 2206.51C2965.72 2258.14 2980.53 2255.34 2972.45 2257.05C2965.55 2258.51 2938.71 2257.06 2855.87 2257.05C2793.26 2257.04 2790.3 2256.91 2778.34 2253.65Z" fill="#3BB8CF"/>
<path d="M2514.81 1399.99C2514.04 1381.45 2514.91 1326.32 2517.18 1230.42C2518.22 1182.57 2520.59 1179.95 2556.93 1180.54C2647.16 1182.07 2646.74 1182.09 2648.82 1189.91C2657.44 1223.06 2694.26 1240.74 2729.1 1228.48C2743.84 1223.12 2746.25 1221.32 2761.35 1202.79C2769.96 1191.91 2777.93 1180.85 2778.83 1178.09C2780.3 1174.25 2805.29 1173.36 2884.86 1174.4C3020.17 1176.07 3041.59 1178.7 3090.5 1200.13C3126.16 1215.58 3151.46 1232.41 3185.63 1263.17C3223.3 1297.09 3243.16 1321.72 3268 1365.49C3287.29 1399.12 3323.09 1484.88 3323.33 1497.39C3323.26 1504.07 3322.45 1504.53 3311.83 1504.88L3300.15 1505.08L3285.7 1484.13C3250.94 1434.2 3213.88 1400.05 3167.1 1375.37C3138.34 1360.19 3091.96 1347.39 3067.56 1347.62C3042.74 1347.88 3034.42 1360.21 3016.03 1423.36C3008.46 1450.26 3005.86 1456.24 3001.26 1456.06C2996.04 1456.13 2900.4 1454.89 2826.27 1453.97L2785.33 1453.2L2779.22 1440.17C2761.79 1402.27 2725.35 1383.73 2688.94 1393.77C2674.76 1398.07 2671.74 1400.1 2656.36 1417.19C2645.71 1429.01 2637.12 1436.35 2633.81 1436.94C2626.15 1437.97 2548.84 1436.18 2537.69 1434.47C2521.5 1432.19 2515.61 1423.32 2514.81 1399.99Z" fill="#3BB8CF"/>
</svg>
