<svg width="512" height="512" viewBox="0 0 512 512" fill="none" xmlns="http://www.w3.org/2000/svg">
<path d="M191.209 511.661C161.621 509.558 132.312 501.347 106.92 488.114C99.0159 483.975 82.8575 473.592 75.4429 467.824C67.1889 461.445 50.1911 444.82 43.406 436.541C13.6076 400.032 -1.43157 355.72 0.10732 309.101C1.29646 272.864 11.2992 240.63 30.8851 210.026C42.8464 191.228 59.7043 172.703 77.1916 159.131C97.9666 142.912 127.905 128.255 152.737 122.08C159.102 120.451 159.592 120.519 173.512 123.437C188.062 126.423 187.852 126.287 181.696 128.526C178.828 129.476 174.631 130.901 172.323 131.648C170.015 132.394 167.217 133.751 166.027 134.701L163.929 136.466L176.73 136.059C183.725 135.855 189.461 135.787 189.461 135.923C189.461 136.33 177.359 143.93 172.463 146.577C170.154 147.798 164.209 149.97 159.172 151.395C149.449 154.109 145.043 155.534 141.545 157.027C140.426 157.57 138.747 158.181 137.838 158.452C135.04 159.267 119.861 166.731 114.125 170.056C73.6242 193.875 43.8957 234.794 34.2427 280.124C29.3462 302.925 29.626 329.866 34.9422 352.191C46.1341 399.354 80.4793 441.427 125.876 463.549C161.061 480.65 200.792 486.01 238.775 478.682C292.846 468.231 338.383 433.962 362.306 385.782C386.298 337.398 384.41 280.26 357.129 232.419C343.559 208.601 321.735 186.139 298.442 172.024C289.069 166.324 288.089 166.256 291.237 171.549L292.916 174.467L291.027 173.178C283.403 167.885 269.273 150.309 271.161 148.477C271.791 147.866 277.247 148.952 292.776 152.616C318.168 158.588 316.769 158.249 316.769 157.502C316.769 156.688 308.514 151.395 296.623 144.541C289.768 140.537 288.229 139.452 288.859 138.705C289.348 138.094 291.097 137.755 293.475 137.755C296.833 137.755 298.232 138.23 304.457 141.623C330.619 155.806 349.085 171.142 366.573 193.129C401.897 237.644 416.097 292.271 406.584 346.898C403.226 366.374 397.21 383.882 387.697 402.407C377.485 422.222 366.083 437.423 349.715 453.37C316.559 485.535 275.428 505.147 229.681 510.576C218.839 511.865 201.002 512.408 191.209 511.661Z" fill="#F0A500"/>
<path d="M192.258 464.77C110.627 457.849 48.1626 392.704 48.1626 314.529C48.1626 268.86 69.9169 224.344 105.871 196.182C128.744 178.335 159.872 165.442 186.033 163.135L190.999 162.66L187.712 167.817C184.074 173.517 185.194 172.974 171.973 175.417C165.118 176.707 153.367 180.235 152.737 181.185C152.527 181.592 151.688 181.864 150.848 181.864C150.079 181.864 147.631 182.746 145.462 183.764C143.294 184.85 139.726 186.546 137.418 187.564C123.778 193.671 102.583 210.501 91.0416 224.276C74.6035 244.023 63.6914 268.046 59.5644 293.493C57.8856 303.672 57.9555 326.066 59.6343 335.566C66.6992 375.942 89.2929 409.804 124.058 431.994C148.4 447.534 175.331 455.338 204.709 455.338C228.422 455.338 248.428 450.927 268.993 441.155C283.892 434.03 295.644 426.158 306.906 415.64C361.396 364.949 366.782 282.296 319.217 224.955C310.263 214.165 296.063 201.407 286.55 195.639C283.053 193.536 282.283 192.654 280.045 188.175C278.156 184.239 277.737 182.814 278.366 182.135C279.625 180.642 280.325 180.914 287.53 185.121C321.245 205.14 346.917 238.866 356.5 275.849C360.417 290.982 361.186 297.361 361.186 314.529C361.116 332.105 359.927 341.062 355.59 355.584C347.826 381.71 335.865 400.915 314.67 421.408C305.717 430.094 302.149 433.012 294.385 437.966C289.208 441.291 284.172 444.548 283.193 445.159C282.214 445.838 280.745 446.516 279.835 446.788C278.996 447.059 277.457 448.009 276.338 448.823C275.289 449.706 273.05 450.859 271.301 451.47C269.553 452.013 264.866 453.777 260.809 455.338C239.404 463.685 216.391 466.806 192.258 464.77Z" fill="#F0A500"/>
<path d="M143.923 374.449C143.853 366.102 143.853 348.934 143.923 336.244C143.923 323.554 143.993 296.275 143.993 275.645V238.187L160.641 238.323L177.219 238.526V268.86C177.219 285.621 177.429 299.261 177.639 299.261C178.408 299.261 210.935 263.499 228.982 242.869L232.409 238.866H253.464C265.006 238.866 274.099 239.137 273.679 239.408C273.33 239.68 266.405 247.212 258.29 256.17C223.596 294.85 209.396 311 209.466 311.815C209.536 312.629 221.077 326.337 261.298 373.703C268.363 381.981 274.099 388.971 274.099 389.175C274.099 389.378 264.866 389.514 253.674 389.514L233.179 389.446L222.546 376.756C198.554 348.12 179.947 326.744 178.758 326.54C177.639 326.337 177.569 327.287 177.499 338.416C177.499 345.066 177.429 359.181 177.359 369.835L177.219 389.175L160.641 389.378L143.993 389.514L143.923 374.449Z" fill="#F0A500"/>
<path d="M252.975 186.953C251.506 183.831 250.177 180.438 249.897 179.488C249.617 178.335 248.848 177.656 247.588 177.385C242.902 176.367 243.112 176.706 243.671 171.752C243.951 169.31 244.301 167.138 244.441 167.002C245.14 166.324 255.703 169.852 257.032 171.21C258.78 172.974 266.545 183.899 265.985 183.899C265.775 183.899 264.656 183.424 263.537 182.814C262.348 182.271 260.179 181.864 258.501 181.999L255.563 182.203L255.843 187.496C255.982 190.346 255.982 192.721 255.843 192.721C255.703 192.721 254.374 190.142 252.975 186.953Z" fill="#F0A500"/>
<path d="M216.811 185.799C216.741 179.421 217.51 177.113 219.749 177.113C220.658 177.113 221.568 177.317 221.847 177.52C222.197 177.86 220.238 183.492 217.93 188.717L216.881 191.024L216.811 185.799Z" fill="#F0A500"/>
<path d="M183.585 183.967C184.634 181.796 191.769 170.463 197.924 161.167C201.282 156.077 207.088 150.445 208.627 150.784C210.725 151.191 195.826 171.753 184.914 183.56L182.396 186.275L183.585 183.967Z" fill="#F0A500"/>
<path d="M264.726 173.585C260.25 167.138 252.975 156.755 248.708 150.512C244.371 144.269 240.454 139.112 240.034 139.112C239.335 139.112 239.125 142.301 239.125 152.887C239.125 160.488 238.915 170.056 238.635 174.06L238.216 181.388L234.508 163.134C232.41 153.091 230.731 144.473 230.731 144.066C230.731 143.591 230.101 143.184 229.332 143.184C228.283 143.184 225.974 146.102 220.448 154.245C216.321 160.284 212.824 165.374 212.754 165.509C212.614 165.645 212.404 165.645 212.264 165.509C211.845 165.102 213.663 158.723 217.79 146.237C219.889 139.926 221.638 134.498 221.638 134.226C221.638 132.462 215.902 134.633 203.87 140.944C202.262 141.759 200.513 142.437 199.883 142.437C198.484 142.505 181.207 150.241 180.157 151.259C179.738 151.666 178.898 152.005 178.269 152.005C177.709 152.005 175.821 152.684 174.072 153.43L170.994 154.788L172.603 153.091C173.442 152.209 178.339 148.884 183.375 145.762C188.412 142.709 196.036 137.891 200.233 135.176L207.997 130.222L201.912 130.426C196.036 130.63 195.896 130.562 197.015 129.34C197.645 128.662 199.603 127.508 201.352 126.762C204.22 125.472 204.36 125.336 202.961 124.794C202.052 124.522 195.966 123.165 189.321 121.808C173.862 118.686 174.352 118.822 175.541 117.736C176.24 117.058 179.738 116.65 187.362 116.379C199.184 115.904 201.912 115.565 200.932 114.683C200.583 114.411 196.246 112.443 191.21 110.407C175.611 103.961 158.893 95.8176 160.152 95.3426C161.201 94.9354 176.17 99.1427 199.813 106.472C204.5 107.897 208.347 108.914 208.347 108.711C208.347 108.439 205.899 105.929 202.961 103.011C198.344 98.532 197.785 97.7176 198.904 97.3105C199.813 96.9712 201.562 97.5141 204.36 99.007C206.598 100.228 208.627 101.111 208.767 100.907C208.977 100.771 206.249 94.9354 202.751 88.0137C199.324 81.0242 196.456 75.0525 196.456 74.6454C196.456 74.3061 196.875 73.9668 197.365 73.9668C198.274 74.0347 209.187 88.4887 212.474 93.9854C215.202 98.532 243.252 130.765 247.799 134.565C252.905 138.773 258.991 139.587 264.726 136.737C266.615 135.787 268.504 135.04 268.853 135.04C269.623 135.04 290.118 146.305 291.167 147.323C291.517 147.662 288.999 147.119 285.571 146.237C268.434 141.555 261.439 140.333 260.459 141.826C260.18 142.234 262.208 145.83 264.866 149.834C270.532 158.316 270.812 158.791 270.322 158.791C270.182 158.791 266.965 156.145 263.188 152.955C256.263 147.052 253.814 145.355 253.814 146.441C253.814 146.916 259.55 158.316 270.322 179.353C272.071 182.61 273.33 185.256 273.19 185.256C273.05 185.256 269.203 179.963 264.726 173.585Z" fill="#F0A500"/>
<path d="M221.637 172.16C218.35 171.82 215.552 171.413 215.412 171.278C214.992 170.938 220.448 162.863 221.217 162.795C222.407 162.659 223.106 162.727 226.743 163.202C229.891 163.609 230.031 163.745 230.031 165.781C230.031 167.002 230.311 169.106 230.661 170.531C231.36 173.449 231.99 173.313 221.637 172.16Z" fill="#F0A500"/>
<path d="M285.851 133.005C278.296 132.801 271.931 132.462 271.721 132.258C271.441 132.055 272.7 130.698 274.449 129.273L277.667 126.762L292.076 129.883C300.051 131.648 306.696 133.141 306.836 133.344C307.046 133.548 305.507 133.616 303.408 133.548C301.31 133.48 293.405 133.208 285.851 133.005Z" fill="#F0A500"/>
<path d="M284.592 120.383C284.592 120.179 284.942 119.433 285.291 118.686C285.921 117.601 286.76 117.397 291.097 117.465L296.133 117.533L290.887 119.161C285.291 120.858 284.592 120.994 284.592 120.383Z" fill="#F0A500"/>
<path d="M153.786 112.172C148.96 111.426 148.61 111.29 149.729 110.204C150.359 109.594 152.667 108.983 155.115 108.779L159.382 108.372V110.544C159.382 112.783 158.752 112.987 153.786 112.172Z" fill="#F0A500"/>
<path d="M175.82 91.8141C169.105 88.2854 167.426 84.9603 173.302 86.8603C176.17 87.7425 178.409 89.6426 179.178 91.8141C179.738 93.2391 178.618 93.2391 175.82 91.8141Z" fill="#F0A500"/>
<path d="M219.959 73.8992C219.259 69.3526 218.909 49.5376 219.539 49.5376C220.308 49.5376 220.378 49.6733 222.967 62.2273L224.925 71.8634L222.617 74.0349L220.308 76.2064L219.959 73.8992Z" fill="#F0A500"/>
<path d="M202.192 60.5308C201.422 59.513 200.443 56.8664 200.023 54.6271C199.044 49.6055 199.044 49.5376 200.233 49.5376C201.352 49.5376 205.549 56.9343 205.549 58.9022C205.549 60.7344 204.85 62.4309 204.15 62.4309C203.8 62.4309 202.891 61.6166 202.192 60.5308Z" fill="#F0A500"/>
<path d="M478.632 280.328C477.442 280.056 476.113 279.581 475.624 279.31C475.204 279.038 464.502 266.959 451.911 252.573C439.32 238.119 423.511 220.068 416.796 212.4C395.252 187.835 386.858 177.995 386.508 176.706C386.298 175.96 385.879 173.72 385.669 171.685C385.039 166.799 384.899 166.595 376.995 157.434C371.539 151.055 326.911 99.6855 323.204 95.5461C322.015 94.1889 321.595 94.6639 337.753 81.1599L346.427 73.8311L349.295 76.8169C350.834 78.4455 362.795 91.9496 375.876 106.879C413.089 149.223 410.711 146.916 417.566 147.73C421.763 148.205 421.063 147.594 437.641 166.595C444.846 174.806 461.074 193.4 473.805 207.922C515.425 255.491 511.927 251.284 511.927 254.066C511.927 256.441 509.759 258.681 495.14 271.438C484.088 281.074 483.458 281.413 478.632 280.328Z" fill="#00BCD4"/>
<path d="M251.995 126.762C248.917 123.708 240.314 114.14 225.484 97.3785C218.07 89.0318 218.07 88.2174 224.575 82.7208C240.733 69.081 240.663 69.1489 242.272 70.1668C249.057 74.5098 258.361 71.8633 262.558 64.3987C264.306 61.2093 264.446 60.5307 264.166 55.0341C263.957 51.8447 263.607 48.7232 263.327 48.1124C262.977 47.2303 267.244 43.2265 281.444 31.1475C305.577 10.5861 309.774 7.73599 321.805 3.868C330.549 1.01789 337.683 0 348.595 0C360.627 0 368.041 1.15361 379.373 4.81803C388.117 7.60027 408.053 16.7613 410.081 18.865C411.13 20.0186 411.06 20.2222 409.242 21.9186L407.213 23.7509L401.337 22.3937C387.278 19.2043 375.316 19.0685 363.145 22.0544C355.66 23.8866 345.448 28.8403 341.181 32.6405C336.844 36.5085 337.334 39.9014 344.119 53.5412C347.057 59.3093 347.546 60.7343 346.707 61.4129C345.798 62.2272 328.73 76.7492 315.509 88.0139L308.165 94.1891L305.017 92.8998C295.924 89.0996 286.55 91.5426 281.724 98.8714C279.905 101.789 279.695 102.604 279.695 107.897C279.695 111.561 279.346 114.14 278.856 114.751C277.667 116.108 263.747 127.712 261.508 129.137C258.291 131.24 255.842 130.63 251.995 126.762Z" fill="#00BCD4"/>
</svg>
