<svg width="524" height="604" viewBox="0 0 524 604" fill="none" xmlns="http://www.w3.org/2000/svg">
<path d="M322.077 603.274C314.871 600.595 311.363 592.113 314.743 585.48C316.975 581.143 322.46 578.656 331.134 578.145C340.828 577.508 340.892 577.444 340.892 574.893C340.892 569.982 338.149 567.622 332.537 567.622C328.774 567.622 325.968 568.898 324.756 571.257C323.863 572.852 323.608 572.916 319.463 572.788C317.039 572.724 314.998 572.597 314.934 572.533C314.934 572.469 315.253 571.321 315.7 569.918C316.848 566.729 320.1 563.349 323.608 561.755C327.307 560.033 335.917 559.459 340.063 560.607C343.953 561.755 348.8 566.283 349.757 569.854C350.14 571.385 350.459 578.656 350.459 587.903V603.338H345.994H341.53V600.786C341.53 598.937 341.275 598.235 340.573 598.235C339.999 598.235 339.425 598.682 339.234 599.192C338.979 599.766 337.512 600.914 335.981 601.871C333.749 603.146 332.091 603.593 328.519 603.72C326.032 603.848 323.162 603.656 322.077 603.274ZM335.853 594.855C339.106 593.133 340.892 590.199 340.892 586.564V584.077L334.705 584.523C331.261 584.778 327.817 585.225 327.052 585.544C324.565 586.437 323.034 588.541 323.034 590.837C323.034 595.876 329.858 597.98 335.853 594.855Z" fill="#F0A500"/>
<path d="M400.588 603.018C397.335 601.87 394.593 599.192 393.828 596.386C393.509 595.11 393.19 588.286 393.19 581.206V568.26H390.065C388.279 568.26 386.684 567.941 386.493 567.622C386.238 567.239 386.238 565.517 386.493 563.795L386.94 560.606H390.065H393.19V555.504V550.402H397.973H402.756V555.504V560.606H406.902H411.048V564.433V568.26H408.815C407.54 568.26 405.69 568.706 404.67 569.216L402.756 570.237V581.27C402.756 591.475 402.884 592.431 404.096 594.026C405.18 595.429 405.882 595.684 408.56 595.684H411.685V599.447C411.685 603.146 411.622 603.21 409.708 603.592C406.583 604.166 403.33 603.975 400.588 603.018Z" fill="#F0A500"/>
<path d="M431.775 603.146C425.397 601.041 420.997 596.768 418.637 590.646C416.787 585.671 417.106 575.722 419.275 571.576C422.846 564.624 428.65 560.798 436.558 560.16C443 559.65 447.337 561.18 451.993 565.708C455.947 569.535 457.159 572.533 457.86 580.122C458.179 583.821 458.115 584.076 456.776 584.459C456.011 584.65 448.995 584.842 441.214 584.842C425.206 584.842 425.908 584.587 428.204 589.625C429.607 592.686 431.01 594.026 434.199 595.365C438.791 597.278 444.85 595.939 447.656 592.368C449.123 590.454 449.25 590.454 453.396 590.837L457.605 591.347L456.585 593.643C455.245 596.96 451.61 600.467 447.783 602.126C443.765 603.848 435.602 604.358 431.775 603.146ZM447.847 575.594C446.061 564.752 429.989 565.134 427.311 576.104L426.864 577.826H437.515H448.23L447.847 575.594Z" fill="#F0A500"/>
<path d="M232.278 602.891C232.023 602.7 231.832 589.753 231.832 574.191V545.938H236.615H241.399L241.462 556.333C241.526 562.009 241.718 568.132 241.909 569.918L242.355 573.107L254.027 559.522L265.698 545.938H271.502H277.369L275.775 547.723C274.882 548.68 269.907 554.292 264.678 560.224C256.004 570.109 255.302 571.066 256.068 572.278C256.514 573.043 261.616 579.867 267.356 587.521C273.096 595.238 278.007 601.934 278.198 602.445C278.517 603.274 277.688 603.337 272.586 603.21L266.655 603.019L257.981 591.22C252.751 584.077 248.924 579.421 248.287 579.421C247.713 579.421 245.927 581.079 244.332 583.184L241.399 586.883V595.11V603.337H237.062C234.638 603.337 232.47 603.146 232.278 602.891Z" fill="#F0A500"/>
<path d="M285.533 582.163L285.724 560.925L290.061 560.734L294.334 560.543L294.462 562.966C294.462 564.306 294.525 565.773 294.525 566.219C294.462 567.558 295.227 567.048 296.758 564.688C298.543 561.946 302.498 560.033 306.324 559.969H309.003V564.306V568.579L305.24 568.643C300.584 568.706 297.906 570.237 296.247 573.681C295.099 576.041 294.972 577.699 294.972 589.817V603.338H290.189H285.405L285.533 582.163Z" fill="#F0A500"/>
<path d="M363.661 602.891C363.406 602.7 363.214 594.791 363.214 585.352V568.26H360.025H356.836V565.134C356.836 561.627 357.474 560.798 360.663 560.479L362.895 560.287L363.278 555.823C363.98 547.022 367.998 543.386 377.054 543.386C382.794 543.386 383.24 543.705 382.666 547.723L382.22 550.912L378.776 551.167C374.312 551.55 373.419 552.443 373.227 556.78L373.1 560.287L377.437 560.479L381.71 560.67V564.433V568.196L377.437 568.387L373.1 568.578L372.908 585.99L372.781 603.337H368.444C366.02 603.337 363.852 603.146 363.661 602.891Z" fill="#F0A500"/>
<path d="M466.343 602.955C466.088 602.7 465.896 593.069 465.896 581.526V560.607H470.68H475.463V563.859V567.112L478.206 564.114C480.884 561.181 483.499 560.033 487.772 559.969C489.494 559.969 489.494 559.969 489.494 564.433V568.898H485.668C481.267 568.898 478.716 569.982 476.994 572.533C475.91 574.127 475.718 575.977 475.463 588.669L475.144 603.019L470.999 603.21C468.703 603.338 466.598 603.21 466.343 602.955Z" fill="#F0A500"/>
<path d="M57.3997 603.146C53.2542 601.743 51.0857 600.404 48.5984 597.661C45.4733 594.217 43.8789 590.901 42.986 585.99C41.1364 576.104 45.856 566.283 54.4022 562.073C57.5273 560.543 58.8028 560.288 63.4586 560.288C67.9868 560.288 69.4537 560.543 72.4513 561.946C78.9566 565.007 82.8471 570.428 83.8675 577.954C85.3982 588.732 81.0613 598.044 72.7064 601.998C68.816 603.848 61.2902 604.422 57.3997 603.146ZM69.2624 594.728C70.2191 594.217 71.8773 592.432 72.8339 590.71C74.4284 588.095 74.6197 587.074 74.6197 582.291C74.6197 577.699 74.3646 576.36 73.0253 573.681C68.816 565.517 57.6548 565.836 53.8282 574.255C52.4889 577.252 52.2337 584.332 53.318 588.222C55.1675 594.855 62.8846 597.98 69.2624 594.728Z" fill="#00BCD4"/>
<path d="M148.729 603.083C142.479 601.361 136.994 595.94 135.145 589.498C133.742 584.715 134.124 576.105 135.974 572.023C138.844 565.645 143.946 561.755 151.153 560.543C164.355 558.374 174.432 566.984 174.432 580.505V584.204H159.954C151.918 584.204 145.03 584.46 144.52 584.778C143.053 585.671 144.265 589.689 146.816 592.496C151.344 597.598 159.89 597.534 164.227 592.496C165.758 590.71 165.949 590.646 169.84 591.029C172.199 591.22 173.794 591.666 173.794 592.113C173.794 593.707 170.095 598.618 167.607 600.34C162.569 603.848 155.362 604.868 148.729 603.083ZM164.865 576.105C164.865 573.681 162.76 570.428 160.273 568.898C157.275 567.048 151.727 567.176 148.857 569.089C146.242 570.875 143.818 574.319 143.818 576.296V577.827H154.342H164.865V576.105Z" fill="#00BCD4"/>
<path d="M16.7735 578.655L16.5822 553.91L8.2911 553.782L0 553.718V549.955V546.256L22.1946 546.065L44.3255 545.938V549.7V553.399L36.162 553.718C31.6338 553.91 27.6158 554.229 27.2331 554.484C26.6591 554.803 26.4678 561.244 26.4678 579.166V603.337H21.6844H16.9011L16.7735 578.655Z" fill="#00BCD4"/>
<path d="M93.2428 602.891C92.9877 602.7 92.7964 589.753 92.7964 574.191V545.938H97.5797H102.363V562.711V579.421L107.657 574C110.527 571.002 114.545 566.793 116.649 564.561L120.348 560.543L125.387 560.734L130.425 560.925L122.134 569.854C117.606 574.765 113.843 579.038 113.843 579.293C113.843 579.548 117.861 584.969 122.772 591.22C127.683 597.534 131.701 602.827 131.701 603.019C131.701 603.21 129.405 603.337 126.662 603.337C122.963 603.337 121.305 603.082 120.603 602.381C120.093 601.871 116.904 597.853 113.588 593.452C110.208 589.115 107.21 585.352 106.827 585.161C106.509 584.969 105.361 585.225 104.276 585.799L102.363 586.819V595.046V603.337H98.0262C95.6026 603.337 93.4342 603.146 93.2428 602.891Z" fill="#00BCD4"/>
<path d="M183.17 602.891C182.914 602.7 182.723 593.069 182.723 581.525V560.606H187.188H191.652V563.476C191.652 565.071 191.907 566.346 192.162 566.346C192.481 566.346 193.502 565.517 194.458 564.497C200.708 557.991 213.209 558.884 217.865 566.155C220.543 570.428 220.99 573.936 220.99 589.37V603.465L216.398 603.146L211.742 602.891L211.423 587.967C211.168 575.148 210.977 572.788 209.956 571.385C208.362 569.025 205.938 567.941 202.494 568.005C198.859 568.068 195.734 569.727 193.757 572.724C192.354 574.765 192.29 575.339 192.29 589.051V603.337H187.953C185.529 603.337 183.361 603.146 183.17 602.891Z" fill="#00BCD4"/>
<path d="M231.513 480.884C204.535 478.907 177.812 471.19 154.661 458.753C147.454 454.863 132.721 445.105 125.961 439.684C118.435 433.689 102.937 418.063 96.7506 410.282C69.5813 375.97 55.8691 334.323 57.2722 290.508C58.3564 256.451 67.4766 226.156 85.3344 197.392C96.2404 179.726 111.611 162.315 127.555 149.559C146.497 134.316 173.794 120.54 196.435 114.736C202.239 113.206 202.685 113.27 215.377 116.012C228.643 118.818 228.452 118.691 222.839 120.795C220.224 121.688 216.398 123.028 214.293 123.729C212.188 124.431 209.637 125.706 208.553 126.599L206.64 128.257L218.311 127.875C224.689 127.683 229.918 127.62 229.918 127.747C229.918 128.13 218.885 135.273 214.42 137.76C212.316 138.908 206.895 140.949 202.303 142.288C193.438 144.84 189.42 146.179 186.231 147.582C185.21 148.092 183.68 148.666 182.851 148.921C180.299 149.687 166.46 156.702 161.23 159.827C124.303 182.213 97.197 220.671 88.3957 263.275C83.9313 284.704 84.1864 310.024 89.0335 331.007C99.2379 375.332 130.553 414.874 171.945 435.666C204.025 451.738 240.25 456.776 274.882 449.888C324.182 440.067 365.701 407.859 387.513 362.577C409.389 317.103 407.667 263.402 382.794 218.439C370.421 196.053 350.522 174.943 329.284 161.677C320.738 156.32 319.845 156.256 322.715 161.23L324.246 163.973L322.524 162.761C315.572 157.786 302.689 141.268 304.411 139.546C304.985 138.972 309.959 139.992 324.118 143.436C347.269 149.049 345.994 148.73 345.994 148.028C345.994 147.263 338.468 142.288 327.626 135.847C321.376 132.084 319.973 131.064 320.547 130.362C320.993 129.788 322.587 129.469 324.756 129.469C327.817 129.469 329.093 129.916 334.769 133.104C358.622 146.434 375.459 160.848 391.404 181.512C423.611 223.35 436.558 274.691 427.885 326.032C424.823 344.336 419.338 360.791 410.665 378.202C401.353 396.825 390.957 411.112 376.033 426.099C345.803 456.33 308.301 474.762 266.591 479.864C256.705 481.076 240.442 481.586 231.513 480.884Z" fill="#F0A500"/>
<path d="M232.47 436.814C158.041 430.309 101.088 369.082 101.088 295.61C101.088 252.688 120.923 210.849 153.705 184.382C174.56 167.608 202.941 155.49 226.794 153.322L231.322 152.875L228.324 157.723C225.008 163.08 226.028 162.57 213.974 164.866C207.724 166.077 197.01 169.394 196.436 170.287C196.244 170.669 195.479 170.925 194.714 170.925C194.012 170.925 191.78 171.754 189.803 172.71C187.826 173.731 184.573 175.325 182.468 176.282C170.032 182.022 150.707 197.839 140.184 210.786C125.196 229.345 115.247 251.922 111.484 275.839C109.953 285.406 110.017 306.452 111.547 315.381C117.989 353.329 138.589 385.154 170.287 406.009C192.481 420.614 217.036 427.949 243.822 427.949C265.443 427.949 283.684 423.803 302.434 414.619C316.019 407.923 326.733 400.524 337.002 390.639C386.685 342.997 391.595 265.316 348.227 211.423C340.063 201.283 327.116 189.293 318.442 183.871C315.253 181.894 314.552 181.065 312.511 176.856C310.789 173.157 310.406 171.817 310.98 171.18C312.128 169.777 312.766 170.032 319.335 173.986C350.076 192.8 373.483 224.498 382.22 259.257C385.792 273.479 386.493 279.474 386.493 295.61C386.429 312.128 385.345 320.547 381.391 334.196C374.312 358.75 363.406 376.799 344.081 396.06C335.917 404.223 332.665 406.966 325.585 411.622C320.866 414.747 316.274 417.808 315.381 418.382C314.488 419.02 313.149 419.658 312.32 419.913C311.554 420.168 310.151 421.061 309.131 421.826C308.174 422.655 306.133 423.739 304.539 424.313C302.944 424.824 298.671 426.482 294.972 427.949C275.456 435.793 254.473 438.727 232.47 436.814Z" fill="#F0A500"/>
<path d="M188.399 351.926C188.336 344.081 188.336 327.945 188.399 316.019C188.399 304.092 188.463 278.454 188.463 259.065V223.86L203.642 223.987L218.758 224.179V252.687C218.758 268.44 218.949 281.26 219.14 281.26C219.842 281.26 249.498 247.649 265.953 228.261L269.078 224.498H288.275C298.799 224.498 307.09 224.753 306.707 225.008C306.388 225.263 300.074 232.342 292.676 240.761C261.042 277.114 248.095 292.293 248.159 293.059C248.223 293.824 258.746 306.707 295.418 351.224C301.86 359.005 307.09 365.574 307.09 365.765C307.09 365.957 298.671 366.084 288.467 366.084L269.78 366.02L260.086 354.094C238.21 327.18 221.245 307.09 220.161 306.898C219.14 306.707 219.076 307.6 219.013 318.06C219.013 324.31 218.949 337.576 218.885 347.589L218.758 365.765L203.642 365.957L188.463 366.084L188.399 351.926Z" fill="#F0A500"/>
<path d="M287.829 175.708C286.489 172.774 285.277 169.585 285.022 168.692C284.767 167.608 284.066 166.97 282.918 166.715C278.645 165.758 278.836 166.077 279.346 161.422C279.601 159.126 279.92 157.085 280.048 156.957C280.685 156.319 290.316 159.636 291.528 160.911C293.122 162.57 300.201 172.838 299.691 172.838C299.5 172.838 298.479 172.391 297.459 171.817C296.375 171.307 294.398 170.924 292.867 171.052L290.188 171.243L290.443 176.218C290.571 178.897 290.571 181.129 290.443 181.129C290.316 181.129 289.104 178.705 287.829 175.708Z" fill="#F0A500"/>
<path d="M254.856 174.624C254.792 168.628 255.493 166.46 257.534 166.46C258.363 166.46 259.192 166.651 259.448 166.843C259.766 167.162 257.981 172.455 255.876 177.366L254.919 179.534L254.856 174.624Z" fill="#F0A500"/>
<path d="M224.561 172.902C225.518 170.861 232.023 160.21 237.636 151.472C240.697 146.689 245.991 141.396 247.394 141.714C249.307 142.097 235.722 161.422 225.773 172.519L223.477 175.07L224.561 172.902Z" fill="#F0A500"/>
<path d="M298.544 163.144C294.462 157.085 287.829 147.327 283.938 141.459C279.984 135.592 276.413 130.745 276.03 130.745C275.392 130.745 275.201 133.742 275.201 143.692C275.201 150.835 275.01 159.827 274.754 163.59L274.372 170.478L270.992 153.322C269.078 143.883 267.548 135.783 267.548 135.4C267.548 134.954 266.974 134.571 266.272 134.571C265.315 134.571 263.211 137.314 258.172 144.967C254.409 150.643 251.22 155.427 251.157 155.554C251.029 155.682 250.838 155.682 250.71 155.554C250.328 155.172 251.986 149.176 255.749 137.441C257.662 131.51 259.256 126.408 259.256 126.153C259.256 124.494 254.027 126.535 243.057 132.467C241.59 133.232 239.996 133.87 239.422 133.87C238.146 133.934 222.393 141.204 221.436 142.161C221.054 142.544 220.288 142.862 219.714 142.862C219.204 142.862 217.482 143.5 215.888 144.202L213.081 145.477L214.548 143.883C215.314 143.054 219.778 139.929 224.37 136.995C228.962 134.125 235.914 129.597 239.74 127.046L246.82 122.39L241.271 122.581C235.914 122.772 235.786 122.709 236.807 121.561C237.381 120.923 239.166 119.839 240.761 119.137C243.376 117.925 243.503 117.798 242.228 117.288C241.399 117.032 235.85 115.757 229.791 114.481C215.696 111.548 216.143 111.675 217.227 110.655C217.865 110.017 221.054 109.634 228.005 109.379C238.784 108.933 241.271 108.614 240.378 107.785C240.059 107.53 236.105 105.68 231.513 103.767C217.291 97.7078 202.048 90.0545 203.196 89.608C204.153 89.2254 217.801 93.1796 239.358 100.068C243.631 101.407 247.139 102.364 247.139 102.172C247.139 101.917 244.906 99.5574 242.228 96.8149C238.018 92.6056 237.508 91.8403 238.529 91.4576C239.358 91.1387 240.952 91.6489 243.503 93.052C245.544 94.2 247.394 95.0292 247.521 94.8378C247.713 94.7103 245.225 89.2254 242.036 82.7201C238.911 76.1509 236.296 70.5385 236.296 70.1558C236.296 69.837 236.679 69.5181 237.126 69.5181C237.955 69.5818 247.904 83.1665 250.902 88.3325C253.389 92.6056 278.964 122.9 283.109 126.472C287.765 130.426 293.314 131.191 298.544 128.512C300.266 127.62 301.988 126.918 302.306 126.918C303.008 126.918 321.695 137.505 322.652 138.462C322.97 138.781 320.674 138.27 317.549 137.441C301.924 133.041 295.546 131.893 294.653 133.296C294.398 133.678 296.248 137.059 298.671 140.822C303.837 148.794 304.092 149.24 303.646 149.24C303.518 149.24 300.584 146.753 297.14 143.755C290.826 138.207 288.594 136.612 288.594 137.633C288.594 138.079 293.824 148.794 303.646 168.565C305.24 171.626 306.388 174.114 306.261 174.114C306.133 174.114 302.625 169.139 298.544 163.144Z" fill="#F0A500"/>
<path d="M259.256 161.804C256.259 161.485 253.708 161.103 253.58 160.975C253.197 160.656 258.172 153.067 258.874 153.003C259.958 152.875 260.596 152.939 263.912 153.386C266.782 153.768 266.91 153.896 266.91 155.809C266.91 156.957 267.165 158.934 267.484 160.274C268.121 163.016 268.695 162.888 259.256 161.804Z" fill="#F0A500"/>
<path d="M317.804 125.004C310.916 124.813 305.113 124.494 304.921 124.303C304.666 124.111 305.814 122.836 307.409 121.496L310.342 119.137L323.481 122.07C330.751 123.729 336.81 125.132 336.938 125.323C337.129 125.514 335.726 125.578 333.813 125.514C331.899 125.451 324.692 125.196 317.804 125.004Z" fill="#F0A500"/>
<path d="M316.656 113.142C316.656 112.95 316.975 112.249 317.294 111.547C317.868 110.527 318.633 110.335 322.588 110.399L327.18 110.463L322.396 111.994C317.294 113.588 316.656 113.716 316.656 113.142Z" fill="#F0A500"/>
<path d="M197.392 105.425C192.991 104.724 192.673 104.596 193.693 103.576C194.267 103.002 196.372 102.428 198.604 102.236L202.494 101.854V103.894C202.494 105.999 201.92 106.19 197.392 105.425Z" fill="#F0A500"/>
<path d="M217.482 86.2914C211.359 82.975 209.829 79.8499 215.186 81.6357C217.801 82.4648 219.842 84.2505 220.543 86.2914C221.053 87.6308 220.033 87.6308 217.482 86.2914Z" fill="#F0A500"/>
<path d="M257.726 69.4543C257.088 65.1812 256.769 46.5581 257.343 46.5581C258.045 46.5581 258.108 46.6857 260.468 58.4845L262.254 67.541L260.149 69.5819L258.045 71.6228L257.726 69.4543Z" fill="#F0A500"/>
<path d="M241.526 56.8901C240.825 55.9334 239.932 53.4461 239.549 51.3414C238.656 46.6219 238.656 46.5581 239.741 46.5581C240.761 46.5581 244.588 53.5099 244.588 55.3594C244.588 57.0814 243.95 58.6759 243.312 58.6759C242.993 58.6759 242.164 57.9105 241.526 56.8901Z" fill="#F0A500"/>
<path d="M493.576 263.466C492.492 263.211 491.28 262.764 490.833 262.509C490.451 262.254 480.693 250.902 469.213 237.381C457.733 223.796 443.319 206.831 437.196 199.624C417.553 176.537 409.9 167.289 409.581 166.077C409.389 165.376 409.007 163.271 408.815 161.358C408.241 156.766 408.114 156.574 400.907 147.964C395.932 141.969 355.242 93.6894 351.862 89.799C350.778 88.5235 350.395 88.9699 365.128 76.2781L373.036 69.3901L375.651 72.1964C377.054 73.727 387.96 86.4188 399.886 100.45C433.816 140.247 431.648 138.079 437.898 138.844C441.725 139.291 441.087 138.717 456.202 156.574C462.771 164.291 477.568 181.766 489.175 195.415C527.123 240.123 523.934 236.169 523.934 238.784C523.934 241.016 521.957 243.121 508.627 255.111C498.551 264.167 497.977 264.486 493.576 263.466Z" fill="#00BCD4"/>
<path d="M286.936 119.137C284.13 116.267 276.285 107.274 262.764 91.521C256.004 83.6764 256.004 82.911 261.935 77.745C276.668 64.9257 276.604 64.9895 278.071 65.9462C284.257 70.0279 292.74 67.5406 296.566 60.5251C298.161 57.5275 298.288 56.8897 298.033 51.7237C297.842 48.7262 297.523 45.7924 297.268 45.2184C296.949 44.3893 300.839 40.6264 313.786 29.274C335.79 9.94932 339.616 7.27066 350.586 3.63533C358.558 0.956666 365.063 0 375.013 0C385.983 0 392.743 1.08422 403.075 4.52822C411.047 7.1431 429.224 15.7531 431.073 17.7302C432.03 18.8144 431.966 19.0058 430.308 20.6002L428.459 22.3222L423.101 21.0466C410.282 18.0491 399.376 17.9215 388.279 20.7278C381.454 22.4498 372.143 27.1055 368.252 30.6771C364.298 34.3124 364.745 37.5013 370.931 50.3206C373.61 55.7417 374.056 57.0811 373.291 57.7188C372.462 58.4842 356.9 72.1326 344.846 82.7197L338.149 88.5235L335.279 87.3117C326.988 83.7401 318.442 86.0361 314.041 92.9241C312.383 95.6666 312.192 96.4319 312.192 101.407C312.192 104.851 311.873 107.274 311.426 107.848C310.342 109.124 297.65 120.03 295.61 121.369C292.676 123.346 290.444 122.772 286.936 119.137Z" fill="#00BCD4"/>
</svg>
